{"title":"Gangs Of Wasseypur 2 2012 DvDrip Xvid ...Hon3y","uid":7684483,"size":732067798,"categoryP":"video","categoryS":"movies","magnet":"?xt=urn:btih:28cf4659d0e66677f30efe44afe5121c69c1776f&amp;dn=Gangs+Of+Wasseypur+2+2012+DvDrip+Xvid+...Hon3y&amp;tr=udp%3A%2F%2Ftracker.openbittorrent.com%3A80&amp;tr=udp%3A%2F%2Fopen.demonii.com%3A1337&amp;tr=udp%3A%2F%2Ftracker.coppersurfer.tk%3A6969&amp;tr=udp%3A%2F%2Fexodus.desync.com%3A6969","seeders":0,"leechers":1,"uploader":"honey8ee","files":-1,"time":1348910711,"description":"Format                                   : AVI\nFormat/Info                              : Audio Video Interleave\nFile size                                : 688 MiB\nDuration                                 : 2h 39mn\nOverall bit rate                         : 601 Kbps\n\nVideo\nID                                       : 0\nFormat                                   : MPEG-4 Visual\nFormat profile                           : Advanced Simple@L5\nFormat settings, BVOP                    : 2\nFormat settings, QPel                    : Yes\nFormat settings, GMC                     : 3 warppoints\nFormat settings, Matrix                  : Default (H.263)\nCodec ID                                 : XVID\nCodec ID/Hint                            : XviD\nDuration                                 : 2h 39mn\nBit rate                                 : 499 Kbps\nWidth                                    : 640 pixels\nHeight                                   : 272 pixels\nDisplay aspect ratio                     : 2.40:1\nFrame rate                               : 23.976 fps\nColor space                              : YUV\nChroma subsampling                       : 4:2:0\nBit depth                                : 8 bits\nScan type                                : Progressive\nCompression mode                         : Lossy\nBits/(Pixel*Frame)                       : 0.120\nStream size                              : 571 MiB (83%)\nWriting library                          : XviD 1.2.1 (UTC 2008-12-04)\n\nAudio\nID                                       : 1\nFormat                                   : MPEG Audio\nFormat version                           : Version 1\nFormat profile                           : Layer 3\nMode                                     : Joint stereo\nMode extension                           : MS Stereo\nCodec ID                                 : 55\nCodec ID/Hint                            : MP3\nDuration                                 : 2h 39mn\nBit rate mode                            : Constant\nBit rate                                 : 96.0 Kbps\nChannel(s)                               : 2 channels\nSampling rate                            : 32.0 KHz\nCompression mode                         : Lossy\nStream size                              : 110 MiB (16%)\n\n &lt;a href=&quot;\nhttp://www.shotpix.com/images/94199389858014993676.png&quot; rel=&quot;nofollow&quot; target=&quot;_NEW&quot;&gt;\nhttp://www.shotpix.com/images/94199389858014993676.png&lt;/a&gt;\n &lt;a href=&quot;\nhttp://www.shotpix.com/images/01901582506376453031.png&quot; rel=&quot;nofollow&quot; target=&quot;_NEW&quot;&gt;\nhttp://www.shotpix.com/images/01901582506376453031.png&lt;/a&gt;\n &lt;a href=&quot;\nhttp://www.shotpix.com/images/72260800373020779252.png&quot; rel=&quot;nofollow&quot; target=&quot;_NEW&quot;&gt;\nhttp://www.shotpix.com/images/72260800373020779252.png&lt;/a&gt;\n &lt;a href=&quot;\nhttp://www.shotpix.com/images/00872888635554938315.png&quot; rel=&quot;nofollow&quot; target=&quot;_NEW&quot;&gt;\nhttp://www.shotpix.com/images/00872888635554938315.png&lt;/a&gt;\n &lt;a href=&quot;\nhttp://www.shotpix.com/images/02876966483829710615.png&quot; rel=&quot;nofollow&quot; target=&quot;_NEW&quot;&gt;\nhttp://www.shotpix.com/images/02876966483829710615.png&lt;/a&gt;\n &lt;a href=&quot;\nhttp://www.shotpix.com/images/54985343185676004017.png&quot; rel=&quot;nofollow&quot; target=&quot;_NEW&quot;&gt;\nhttp://www.shotpix.com/images/54985343185676004017.png&lt;/a&gt;\n &lt;a href=&quot;\nhttp://www.shotpix.com/images/54127543404781056989.png&quot; rel=&quot;nofollow&quot; target=&quot;_NEW&quot;&gt;\nhttp://www.shotpix.com/images/54127543404781056989.png&lt;/a&gt;\n &lt;a href=&quot;\nhttp://www.shotpix.com/images/77400208515922710214.png&quot; rel=&quot;nofollow&quot; target=&quot;_NEW&quot;&gt;\nhttp://www.shotpix.com/images/77400208515922710214.png&lt;/a&gt;\n &lt;a href=&quot;\nhttp://www.shotpix.com/images/94289222094921913106.png&quot; rel=&quot;nofollow&quot; target=&quot;_NEW&quot;&gt;\nhttp://www.shotpix.com/images/94289222094921913106.png&lt;/a&gt;\n\n\n\n                                Check the Sample First","torrent":{"xt":"urn:btih:28cf4659d0e66677f30efe44afe5121c69c1776f","amp;dn":"Gangs+Of+Wasseypur+2+2012+DvDrip+Xvid+...Hon3y","amp;tr":["udp%3A%2F%2Ftracker.openbittorrent.com%3A80","udp%3A%2F%2Fopen.demonii.com%3A1337","udp%3A%2F%2Ftracker.coppersurfer.tk%3A6969","udp%3A%2F%2Fexodus.desync.com%3A6969"],"infoHash":"28cf4659d0e66677f30efe44afe5121c69c1776f","infoHashBuffer":{"type":"Buffer","data":[40,207,70,89,208,230,102,119,243,14,254,68,175,229,18,28,105,193,119,111]},"announce":[],"urlList":[]}}